 <svg width="24" height="24" viewBox="0 0 24 24" xmlns="http://www.w3.org/2000/svg">
    <g fill-rule="nonzero" fill="rgb(32 107 246)">
      <path d="M12 0C5.373 0 0 5.373 0 12s5.373 12 12 12 12-5.373 12-12C23.993 5.376 18.624.007 12 0zm10 12a9.938 9.938 0 0 1-1.662 5.508l-1.192-1.193a.5.5 0 0 1-.146-.353V15a3 3 0 0 0-3-3h-3a1 1 0 0 1-1-1v-.5a.5.5 0 0 1 .5-.5A2.5 2.5 0 0 0 15 7.5v-1a.5.5 0 0 1 .5-.5h1.379a2.516 2.516 0 0 0 1.767-.732l.377-.377A9.969 9.969 0 0 1 22 12zm-19.951.963 3.158 3.158A2.978 2.978 0 0 0 7.329 17H10a1 1 0 0 1 1 1v3.949a10.016 10.016 0 0 1-8.951-8.986zM13 21.949V18a3 3 0 0 0-3-3H7.329a1 1 0 0 1-.708-.293l-4.458-4.458A9.978 9.978 0 0 1 17.456 3.63l-.224.224a.507.507 0 0 1-.353.146H15.5A2.5 2.5 0 0 0 13 6.5v1a.5.5 0 0 1-.5.5 2.5 2.5 0 0 0-2.5 2.5v.5a3 3 0 0 0 3 3h3a1 1 0 0 1 1 1v.962c.002.662.265 1.297.732 1.767l1.337 1.337A9.971 9.971 0 0 1 13 21.949z" />
      <path fill="#f06b1f" d="M18.75 11.803a4.704 4.704 0 0 0-4.699 4.698c0 1.2 1.13 3.418 3.18 6.245a1.877 1.877 0 0 0 3.038 0c2.05-2.827 3.18-5.045 3.18-6.245a4.704 4.704 0 0 0-4.699-4.698z" />
      <path d="M18.75 18.412a1.943 1.943 0 1 1 0-3.887 1.943 1.943 0 0 1 0 3.887z" fill="#FFF" />
    </g>
  </svg>