<svg width="24" height="32" viewBox="0 0 24 32" xmlns="http://www.w3.org/2000/svg">
    <g fill-rule="nonzero" fill="rgb(32 107 246)">
      <path d="M17.333 0h-.173a2.693 2.693 0 0 0-2.588 2.043 2.667 2.667 0 0 1-5.144 0A2.693 2.693 0 0 0 6.84 0h-.173A6.675 6.675 0 0 0 0 6.667V28a4 4 0 0 0 4 4h2.84a2.693 2.693 0 0 0 2.588-2.043 2.667 2.667 0 0 1 5.144 0A2.693 2.693 0 0 0 17.16 32H20a4 4 0 0 0 4-4V6.667A6.675 6.675 0 0 0 17.333 0zM20 29.333l-2.857-.084a5.333 5.333 0 0 0-10.303.084H4A1.333 1.333 0 0 1 2.667 28v-5.333h2.666a1.333 1.333 0 0 0 0-2.667H2.667V6.667a4 4 0 0 1 4-4l.19.084A5.347 5.347 0 0 0 12 6.667a5.428 5.428 0 0 0 5.19-4h.143a4 4 0 0 1 4 4V20h-2.666a1.333 1.333 0 1 0 0 2.667h2.666V28c0 .736-.597 1.333-1.333 1.333z" />
      <path fill="#f06b1f" d="M13.333 20h-2.666a1.333 1.333 0 1 0 0 2.667h2.666a1.333 1.333 0 0 0 0-2.667z" />
    </g>
  </svg>