<svg width="24" height="21" viewBox="0 0 24 21" xmlns="http://www.w3.org/2000/svg">
    <g fill-rule="evenodd" fill="rgb(32 107 246)">
      <path d="M22.769 7.294a4.993 4.993 0 0 0-3.772-1.72h-3.989l.336-2.042a3.036 3.036 0 0 0-5.72-1.836L7.711 5.573H4.999a5.005 5.005 0 0 0-4.999 5v4.998a5.005 5.005 0 0 0 5 5h13.297a5.023 5.023 0 0 0 4.95-4.3l.705-4.999a5 5 0 0 0-1.183-3.978zM1.999 15.57v-4.999a3 3 0 0 1 3-3h2v10.999h-2a3 3 0 0 1-3-3zm19.968-4.58-.706 5a3.011 3.011 0 0 1-2.964 2.58H8.998V7.307a1 1 0 0 0 .23-.292l2.189-4.434a1.07 1.07 0 0 1 1.722-.207c.199.23.284.539.233.84l-.528 3.199a1 1 0 0 0 .987 1.16h5.166a3 3 0 0 1 2.97 3.418z" fill-rule="nonzero" />
      <rect
        fill="#f06b1f"
        x="3"
        y="13.5"
        width="3"
        height="3"
        rx="1.5"
      />
    </g>
  </svg>