 <svg width="24" height="23" viewBox="0 0 24 23" xmlns="http://www.w3.org/2000/svg">
    <g fill-rule="evenodd" fill="rgb(32 107 246)">
      <path d="M20.9 3.291A5.011 5.011 0 0 0 16.2 0H7.8a5.011 5.011 0 0 0-4.7 3.291L.4 10.718A6.664 6.664 0 0 0 0 13v1a4.979 4.979 0 0 0 2 3.978V20a3 3 0 0 0 6 0v-1h8v1a3 3 0 1 0 6 0v-2.022A4.979 4.979 0 0 0 24 14v-1a6.654 6.654 0 0 0-.4-2.281l-2.7-7.428zm-15.918.684A3.009 3.009 0 0 1 7.8 2h8.4a3.009 3.009 0 0 1 2.82 1.975L21.208 10H2.791l2.191-6.025zM6 20a1 1 0 0 1-2 0v-1.1a5 5 0 0 0 1 .1h1v1zm14 0a1 1 0 0 1-2 0v-1h1a5 5 0 0 0 1-.1V20zm2-6a3 3 0 0 1-3 3H5a3 3 0 0 1-3-3v-1c.004-.337.045-.672.121-1h19.758c.076.328.117.663.121 1v1z" fill-rule="nonzero" />
      <rect fill="#f06b1f" x="4.5" y="12.75" width="3" height="3" rx="1.5" />
      <rect fill="#f06b1f" x="16.5" y="12.75" width="3" height="3" rx="1.5" />
    </g>
  </svg>